#N canvas 875 182 861 869 10;
#X msg 215 42 10;
#X msg 271 46 13;
#X obj 258 102 s test;
#X msg 490 58 10;
#X msg 546 62 13;
#X obj 533 118 s test;
#X obj 368 114 bng 15 250 50 0 empty empty empty 17 7 0 10 -262144
-1 -1;
#X msg 321 167 10;
#X msg 353 167 13;
#X obj 323 224 s test;
#X msg 553 200 10;
#X msg 609 204 13;
#X obj 596 260 s test;
#X obj 34 223 r test;
#X text 131 305 reset;
#X obj 109 403 f;
#X obj 157 333 loadbang;
#X obj 81 346 bng 15 250 50 0 empty empty empty 17 7 0 10 -262144 -1
-1;
#X obj 157 402 + 1;
#X obj 69 458 f;
#X floatatom 69 480 5 0 0 0 byte_count - -, f 5;
#X msg 129 370 1;
#X obj 53 396 bng 15 250 50 0 empty empty empty 17 7 0 10 -262144 -1
-1;
#X obj 36 328 del 5;
#N canvas 0 50 450 250 (subpatch) 0;
#X array \$0-bytes_in 4 float 2;
#X coords 0 9 4 0 200 140 1 0 0;
#X restore 492 371 graph;
#X floatatom 119 491 5 0 0 0 - - -, f 5;
#X obj 111 551 tabwrite \$0-bytes_in;
#X obj 119 510 - 48;
#X obj 203 473 - 1, f 7;
#X msg 439 47 57;
#X msg 392 44 56;
#X msg 358 47 55;
#X msg 317 43 54;
#X obj 10 442 s prt2;
#X obj 271 363 r byte_count;
#X obj 273 492 until;
#X obj 333 519 f;
#X obj 275 418 f;
#X floatatom 133 587 5 0 0 0 - - -, f 5;
#X obj 26 551 s byte_count;
#X obj 269 597 tabread \$0-bytes_in;
#X obj 443 662 pow;
#X obj 463 582 t b f;
#X msg 443 607 10;
#X obj 288 728 *;
#X obj 384 674 t b f;
#X msg 583 63 54;
#X msg 617 60 55;
#X msg 666 62 56;
#X msg 669 199 54;
#X msg 379 167 54;
#X msg 410 168 55;
#X msg 166 365 0;
#X obj 287 762 +;
#X obj 164 750 f;
#X obj 287 784 t b f;
#X obj 122 796 f;
#X obj 116 728 bng 15 250 50 0 empty empty empty 17 7 0 10 -262144
-1 -1;
#X floatatom 122 818 5 0 0 0 - - -, f 5;
#X obj 57 645 sel 0;
#X obj 47 672 del 5;
#X obj 115 206 inlet;
#X obj 180 840 outlet;
#X obj 363 518 - 1;
#X obj 271 385 t b f f b;
#X obj 364 237 r test;
#X obj 336 289 print testin;
#X obj 368 134 t b b b b;
#X obj 279 -23 bng 15 250 50 0 empty empty empty 17 7 0 10 -262144
-1 -1;
#X obj 279 -3 t b b b b b b;
#X obj 575 18 bng 15 250 50 0 empty empty empty 17 7 0 10 -262144 -1
-1;
#X obj 578 36 t b b b b b;
#X obj 637 152 t b b b;
#X obj 645 125 bng 15 250 50 0 empty empty empty 17 7 0 10 -262144
-1 -1;
#X msg -53 65 10;
#X msg 3 69 13;
#X obj -10 125 s test;
#X obj 11 0 bng 15 250 50 0 empty empty empty 17 7 0 10 -262144 -1
-1;
#X obj 11 20 t b b b b b b;
#X msg 171 70 0;
#X msg 124 67 0;
#X msg 90 70 0;
#X msg 49 66 0;
#X obj 482 699 print pows;
#X obj 183 798 print products;
#X obj 364 259 - 48;
#X obj 192 628 print idx;
#X obj 259 523 f;
#X obj 291 521 + 1;
#X msg 335 430 0;
#X obj 344 624 print tabout;
#X obj 133 606 - 1;
#X obj 35 261 sel \$1;
#X obj 89 304 sel \$2;
#X connect 0 0 2 0;
#X connect 1 0 2 0;
#X connect 3 0 5 0;
#X connect 4 0 5 0;
#X connect 6 0 67 0;
#X connect 7 0 9 0;
#X connect 8 0 9 0;
#X connect 10 0 12 0;
#X connect 11 0 12 0;
#X connect 13 0 92 0;
#X connect 15 0 18 0;
#X connect 15 0 19 1;
#X connect 15 0 28 0;
#X connect 16 0 21 0;
#X connect 16 0 52 0;
#X connect 17 0 15 0;
#X connect 18 0 15 1;
#X connect 19 0 20 0;
#X connect 20 0 39 0;
#X connect 21 0 15 1;
#X connect 22 0 19 0;
#X connect 22 0 33 0;
#X connect 23 0 22 0;
#X connect 25 0 27 0;
#X connect 27 0 26 0;
#X connect 28 0 26 1;
#X connect 29 0 2 0;
#X connect 30 0 2 0;
#X connect 31 0 2 0;
#X connect 32 0 2 0;
#X connect 34 0 64 0;
#X connect 35 0 36 0;
#X connect 35 0 87 0;
#X connect 36 0 63 0;
#X connect 37 0 35 0;
#X connect 37 0 38 0;
#X connect 38 0 91 0;
#X connect 40 0 44 0;
#X connect 41 0 45 0;
#X connect 42 0 43 0;
#X connect 42 1 41 1;
#X connect 43 0 41 0;
#X connect 44 0 53 0;
#X connect 45 1 44 1;
#X connect 46 0 5 0;
#X connect 47 0 5 0;
#X connect 48 0 5 0;
#X connect 49 0 12 0;
#X connect 50 0 9 0;
#X connect 51 0 9 0;
#X connect 52 0 53 1;
#X connect 52 0 54 1;
#X connect 53 0 55 0;
#X connect 54 0 53 1;
#X connect 54 0 56 1;
#X connect 55 0 54 0;
#X connect 55 1 54 1;
#X connect 56 0 58 0;
#X connect 57 0 56 0;
#X connect 58 0 62 0;
#X connect 59 0 60 0;
#X connect 60 0 57 0;
#X connect 61 0 92 0;
#X connect 63 0 36 1;
#X connect 63 0 42 0;
#X connect 64 0 37 0;
#X connect 64 1 37 1;
#X connect 64 2 36 1;
#X connect 64 3 89 0;
#X connect 65 0 85 0;
#X connect 67 0 7 0;
#X connect 67 1 8 0;
#X connect 67 2 50 0;
#X connect 67 3 51 0;
#X connect 68 0 69 0;
#X connect 69 0 0 0;
#X connect 69 1 1 0;
#X connect 69 2 32 0;
#X connect 69 3 31 0;
#X connect 69 4 30 0;
#X connect 69 5 29 0;
#X connect 70 0 71 0;
#X connect 71 0 3 0;
#X connect 71 1 4 0;
#X connect 71 2 46 0;
#X connect 71 3 47 0;
#X connect 71 4 48 0;
#X connect 72 0 10 0;
#X connect 72 1 11 0;
#X connect 72 2 49 0;
#X connect 73 0 72 0;
#X connect 74 0 76 0;
#X connect 75 0 76 0;
#X connect 77 0 78 0;
#X connect 78 0 74 0;
#X connect 78 1 75 0;
#X connect 78 2 82 0;
#X connect 78 3 81 0;
#X connect 78 4 80 0;
#X connect 78 5 79 0;
#X connect 79 0 76 0;
#X connect 80 0 76 0;
#X connect 81 0 76 0;
#X connect 82 0 76 0;
#X connect 85 0 66 0;
#X connect 87 0 88 0;
#X connect 87 0 40 0;
#X connect 87 0 59 0;
#X connect 88 0 87 1;
#X connect 89 0 87 1;
#X connect 91 0 59 1;
#X connect 92 1 93 0;
#X connect 93 0 21 0;
#X connect 93 0 23 0;
#X connect 93 0 52 0;
#X connect 93 1 17 0;
#X connect 93 1 25 0;
