#N canvas 243 151 567 542 10;
#X msg 82 0 close;
#X msg 30 -51 devicename /dev/ttyS0;
#X msg 60 -29 devices;
#X obj 60 51 comport 0 9600;
#X obj 60 244 makefilename %c;
#X obj 60 290 list trim;
#X obj 60 315 print ascii;
#X obj 60 266 t l b;
#X text 109 -28 print list of available ports;
#X text 169 -50 connect to serial port /dev/ttyS0;
#X text 119 -1 close connection - make sure to do this before trying
to upload a new sketch!;
#X text 180 118 This is a basic patch for receiving data from an Arduino
device over port /dev/ttyS0 with the [comport] object by Martin Peach.
Notice that messages are received one byte at a time.;
#X connect 0 0 3 0;
#X connect 1 0 3 0;
#X connect 2 0 3 0;
#X connect 3 0 4 0;
#X connect 4 0 7 0;
#X connect 5 0 6 0;
#X connect 7 0 5 0;
